{
    "asset" : {
        "generator" : "Khronos glTF Blender I/O v1.4.40",
        "version" : "2.0"
    },
    "scene" : 0,
    "scenes" : [
        {
            "name" : "Scene",
            "nodes" : [
                0
            ]
        }
    ],
    "nodes" : [
        {
            "mesh" : 0,
            "name" : "Ground",
            "scale" : [
                40.61507034301758,
                40.61507034301758,
                40.61507034301758
            ],
            "translation" : [
                -0.037023499608039856,
                -0.6802469491958618,
                -0.5139238834381104
            ]
        }
    ],
    "materials" : [
        {
            "doubleSided" : true,
            "name" : "\u30de\u30c6\u30ea\u30a2\u30eb",
            "normalTexture" : {
                "index" : 0,
                "texCoord" : 0
            },
            "pbrMetallicRoughness" : {
                "baseColorTexture" : {
                    "index" : 1,
                    "texCoord" : 0
                },
                "metallicFactor" : 0,
                "roughnessFactor" : 0.5
            }
        }
    ],
    "meshes" : [
        {
            "name" : "\u5e73\u9762",
            "primitives" : [
                {
                    "attributes" : {
                        "POSITION" : 0,
                        "NORMAL" : 1,
                        "TANGENT" : 2,
                        "TEXCOORD_0" : 3
                    },
                    "indices" : 4,
                    "material" : 0
                }
            ]
        }
    ],
    "textures" : [
        {
            "sampler" : 0,
            "source" : 0
        },
        {
            "sampler" : 0,
            "source" : 1
        }
    ],
    "images" : [
        {
            "mimeType" : "image/png",
            "name" : "NormalMap",
            "uri" : "NormalMap.png"
        },
        {
            "mimeType" : "image/jpeg",
            "name" : "concrete_0007_color_4k",
            "uri" : "concrete_0007_color_4k.jpg"
        }
    ],
    "accessors" : [
        {
            "bufferView" : 0,
            "componentType" : 5126,
            "count" : 446,
            "max" : [
                2.2456142902374268,
                1.4593647718429565,
                2.2857437133789062
            ],
            "min" : [
                -2.353271484375,
                0.1320120245218277,
                -2.0164899826049805
            ],
            "type" : "VEC3"
        },
        {
            "bufferView" : 1,
            "componentType" : 5126,
            "count" : 446,
            "type" : "VEC3"
        },
        {
            "bufferView" : 2,
            "componentType" : 5126,
            "count" : 446,
            "type" : "VEC4"
        },
        {
            "bufferView" : 3,
            "componentType" : 5126,
            "count" : 446,
            "type" : "VEC2"
        },
        {
            "bufferView" : 4,
            "componentType" : 5123,
            "count" : 1014,
            "type" : "SCALAR"
        }
    ],
    "bufferViews" : [
        {
            "buffer" : 0,
            "byteLength" : 5352,
            "byteOffset" : 0
        },
        {
            "buffer" : 0,
            "byteLength" : 5352,
            "byteOffset" : 5352
        },
        {
            "buffer" : 0,
            "byteLength" : 7136,
            "byteOffset" : 10704
        },
        {
            "buffer" : 0,
            "byteLength" : 3568,
            "byteOffset" : 17840
        },
        {
            "buffer" : 0,
            "byteLength" : 2028,
            "byteOffset" : 21408
        }
    ],
    "samplers" : [
        {
            "magFilter" : 9729,
            "minFilter" : 9986
        }
    ],
    "buffers" : [
        {
            "byteLength" : 23436,
            "uri" : "stage_Ground.bin"
        }
    ]
}
