{
    "asset" : {
        "generator" : "Khronos glTF Blender I/O v1.4.40",
        "version" : "2.0"
    },
    "scene" : 0,
    "scenes" : [
        {
            "name" : "Scene",
            "nodes" : [
                0,
                1,
                2
            ]
        }
    ],
    "nodes" : [
        {
            "mesh" : 0,
            "name" : "Sword_Model_03",
            "scale" : [
                1.5,
                1.5,
                1.5
            ]
        },
        {
            "name" : "EffectStart",
            "translation" : [
                0,
                1.421170949935913,
                0
            ]
        },
        {
            "name" : "EffectEnd",
            "translation" : [
                0,
                0.4725114703178406,
                0
            ]
        }
    ],
    "materials" : [
        {
            "name" : "Material.001",
            "pbrMetallicRoughness" : {
                "baseColorTexture" : {
                    "index" : 0,
                    "texCoord" : 0
                },
                "metallicFactor" : 0,
                "roughnessFactor" : 0.5
            }
        }
    ],
    "meshes" : [
        {
            "name" : "Cylinder.025",
            "primitives" : [
                {
                    "attributes" : {
                        "POSITION" : 0,
                        "NORMAL" : 1,
                        "TEXCOORD_0" : 2
                    },
                    "indices" : 3,
                    "material" : 0
                }
            ]
        }
    ],
    "textures" : [
        {
            "sampler" : 0,
            "source" : 0
        }
    ],
    "images" : [
        {
            "mimeType" : "image/png",
            "name" : "Sword_04_Basecolor",
            "uri" : "Sword_04_Basecolor.png"
        }
    ],
    "accessors" : [
        {
            "bufferView" : 0,
            "componentType" : 5126,
            "count" : 738,
            "max" : [
                0.016660576686263084,
                0.9610385894775391,
                0.1442960798740387
            ],
            "min" : [
                -0.016660576686263084,
                -0.1576991081237793,
                -0.1442960798740387
            ],
            "type" : "VEC3"
        },
        {
            "bufferView" : 1,
            "componentType" : 5126,
            "count" : 738,
            "type" : "VEC3"
        },
        {
            "bufferView" : 2,
            "componentType" : 5126,
            "count" : 738,
            "type" : "VEC2"
        },
        {
            "bufferView" : 3,
            "componentType" : 5123,
            "count" : 1656,
            "type" : "SCALAR"
        }
    ],
    "bufferViews" : [
        {
            "buffer" : 0,
            "byteLength" : 8856,
            "byteOffset" : 0
        },
        {
            "buffer" : 0,
            "byteLength" : 8856,
            "byteOffset" : 8856
        },
        {
            "buffer" : 0,
            "byteLength" : 5904,
            "byteOffset" : 17712
        },
        {
            "buffer" : 0,
            "byteLength" : 3312,
            "byteOffset" : 23616
        }
    ],
    "samplers" : [
        {
            "magFilter" : 9729,
            "minFilter" : 9986
        }
    ],
    "buffers" : [
        {
            "byteLength" : 26928,
            "uri" : "Sword_04.bin"
        }
    ]
}
